<?xml version="1.0" standalone="no"?><!DOCTYPE svg PUBLIC "-//W3C//DTD SVG 1.1//EN" "http://www.w3.org/Graphics/SVG/1.1/DTD/svg11.dtd"><svg t="1642848049859" class="icon" viewBox="0 0 1063 1024" version="1.1" xmlns="http://www.w3.org/2000/svg" p-id="1287" xmlns:xlink="http://www.w3.org/1999/xlink" width="207.6171875" height="200"><defs><style type="text/css"></style></defs><path d="M26.14528 967.823729s-112.484913-91.929078 214.99508-261.529665c177.675179-92.023018 343.159475-16.153454 496.760329 17.080046 182.893133 39.574467 375.603022 205.340583 291.594816 255.786499" fill="#DEF7FF" p-id="1288"></path><path d="M138.006772 912.73204s-123.360632-90.981135 139.727587-139.116975c98.654346-18.049339 205.498574-62.807599 315.814321-45.979484 183.870966 28.045436 346.212533 139.210915 267.866362 185.079379" fill="#B7E1ED" p-id="1289"></path><path d="M1020.566911 981.261455c-98.112054-120.457025-280.326256-201.382283-488.920588-201.382283-208.607142 0-390.838423 80.946608-488.946208 201.420713l977.866796-0.03843z" fill="#FFDEA1" p-id="1290"></path><path d="M91.301386 959.949827s793.133288-23.109302 608.997582-104.205361c-40.505329-17.844378-106.331827-51.90199-168.652645-54.515236-57.269394-2.395476 225.904959-26.516771 470.264907 158.682167l-910.609844 0.03843z" fill="#DBBF8A" opacity=".71" p-id="1291"></path><path d="M1037.121745 967.781028c-105.123413-129.073908-298.811135-209.251914-505.475422-209.251914-206.677097 0-400.373359 80.195086-505.501043 209.294615A21.350058 21.350058 0 0 0 42.700115 1002.658482l977.866796-0.03843c8.241122 0 15.747802-4.739713 19.283372-12.186612a21.341518 21.341518 0 0 0-2.728538-22.652412z m-977.866795 26.999283c97.223892-119.385252 278.23395-193.551082 472.391373-193.551081 194.148883 0 375.137591 74.14875 472.365753 193.512651a21.345788 21.345788 0 0 1 16.554835-34.834754L42.700115 959.949827a21.341518 21.341518 0 0 1 16.554835 34.830484z" fill="#6E6E96" p-id="1292"></path><path d="M415.224459 859.053725a21.354328 21.354328 0 0 1-20.406385-15.09876L211.971911 247.126916a21.350058 21.350058 0 0 1 40.82985-12.511134l182.841893 596.823779a21.350058 21.350058 0 0 1-14.159358 26.666222 21.136557 21.136557 0 0 1-6.259837 0.947942z" fill="#6E6E96" p-id="1293"></path><path d="M443.889046 439.268894c56.394042-16.793955 119.927543-3.287909 152.187481 30.329892l10.410288-3.100029C563.176088 321.036545 406.675896 239.265825 256.930863 283.853285 107.194369 328.449285 20.923056 482.507031 64.238053 627.964973l10.410288-3.091489c8.621153-45.787333 48.639701-88.077527 105.020933-104.871482 56.385502-16.793955 113.027205-3.287909 145.278602 30.334161 8.612613-45.783063 62.564209-94.277584 118.94117-111.067269z" fill="#9EDDEB" p-id="1294"></path><path d="M448.81237 455.802379c48.823312-14.539389 106.780178-3.471519 134.821343 25.735359a17.220956 17.220956 0 0 0 17.361867 4.585992l10.410288-3.100028a17.250846 17.250846 0 0 0 11.597351-21.456808c-21.828299-73.328908-71.398862-134.031391-139.578136-170.928561-70.903541-38.361783-153.092723-46.649876-231.421814-23.327073C93.389422 314.550398 1.742165 478.54446 47.700299 632.875486a17.250846 17.250846 0 0 0 21.448267 11.614431l10.410288-3.095758a17.263657 17.263657 0 0 0 12.032893-13.352326c7.732991-41.068971 44.237319-76.992578 92.992311-91.527697 48.759261-14.509499 98.966057-4.410922 127.908194 25.739629a17.255117 17.255117 0 0 0 29.394759-8.753523c7.25475-38.464264 55.215519-82.300202 106.925359-97.697863z m-111.417411 82.586292c-37.789602-39.378046-101.630544-53.084783-162.644738-34.915884-61.009924 18.173169-106.955248 64.566844-117.049555 118.202459a17.250846 17.250846 0 0 1 12.032892-13.339516l-10.410288 3.100028a17.250846 17.250846 0 0 1 21.448268 11.610161c-40.535219-136.102347 40.70175-280.842927 181.086918-322.654879 69.494437-20.696746 142.353644-13.377946 205.152703 20.602805 60.074792 32.511868 103.73993 85.933982 122.942171 150.428236a17.276467 17.276467 0 0 1 1.357864-13.130286 17.267927 17.267927 0 0 1 10.243757-8.322252l-10.410288 3.100028a17.242306 17.242306 0 0 1 17.370407 4.590263c-37.520591-39.109035-107.254149-53.464814-169.553617-34.915885-63.896452 19.027171-121.430587 73.674779-130.969793 124.402516a17.250846 17.250846 0 0 1 29.403299-8.757794z" fill="#6E6E96" p-id="1295"></path><path d="M114.128868 486.982003s136.153587-70.839491 182.846162-24.151186c0 0 89.695862-106.946708 210.438978-79.349623 0 0-117.959068-127.908195-265.897887-69.259587-147.947359 58.648608-127.387253 172.760396-127.387253 172.760396z" fill="#ABF1FF" p-id="1296"></path><path d="M518.823478 870.680967m-23.485063 0a23.485063 23.485063 0 1 0 46.970127 0 23.485063 23.485063 0 1 0-46.970127 0Z" fill="#DBBF8A" p-id="1297"></path><path d="M322.402949 883.491001m-10.675029 0a10.675029 10.675029 0 1 0 21.350058 0 10.675029 10.675029 0 1 0-21.350058 0Z" fill="#DBBF8A" p-id="1298"></path><path d="M625.642086 847.725385s-35.808317-397.14523 178.03813-610.991677c0 0-107.67261 229.120278-84.388237 610.991677" fill="#FFED7F" p-id="1299"></path><path d="M625.616466 869.075442a21.350058 21.350058 0 0 1-21.239037-19.432822c-0.375761-4.154721-8.971294-103.206178 8.949944-230.20486 23.916334-169.502377 84.516338-307.060798 175.258352-397.802813a21.350058 21.350058 0 0 1 34.416293 24.176806c-1.046153 2.233216-105.033743 229.440528-82.398412 600.611278a21.358598 21.358598 0 0 1-20.013544 22.613981c-11.738262 0.683202-21.892349-8.241122-22.613981-20.013544-13.356596-219.08148 15.380581-387.755475 43.250947-493.76705-117.852318 209.085384-94.623455 487.263823-94.328824 490.547462a21.350058 21.350058 0 0 1-21.281738 23.271562z" fill="#6E6E96" p-id="1300"></path><path d="M803.680216 236.729438s183.917936 70.66442 117.728487 274.322619c0 0 138.587494-253.455073-10.188247-325.853118 0-0.00427-76.309376-35.722916-107.54024 51.530499z" fill="#A2DBA8" p-id="1301"></path><path d="M921.400163 532.406385a21.350058 21.350058 0 0 1-20.295364-27.951495c24.962487-76.813237 14.93223-141.708872-29.813221-192.88069-33.831301-38.694844-74.857572-54.754358-75.267492-54.912348a21.350058 21.350058 0 0 1-12.442814-27.127383c22.707921-63.452371 67.590012-72.927527 92.321919-72.927527 23.912064 0 42.345704 8.305172 44.369689 9.253115 36.265208 17.647958 60.604273 45.637883 72.628626 83.329275 34.975664 109.658166-49.160643 265.526396-52.755992 272.106483a21.358598 21.358598 0 0 1-18.745351 11.11057z m-89.806882-305.707204c33.43846 18.47207 98.526246 63.977582 119.163212 146.529715 8.689473-37.768252 12.062783-77.88501 1.443263-111.11851-8.429003-26.371591-24.795957-45.206612-50.027454-57.568295-1.319434-0.567912-12.575184-5.230764-26.269111-5.230764-19.099761-0.00427-33.716011 8.992644-44.30991 27.387854z" fill="#6E6E96" p-id="1302"></path><path d="M820.192351 280.992377m-62.038998 0a62.038997 62.038997 0 1 0 124.077995 0 62.038997 62.038997 0 1 0-124.077995 0Z" fill="#FFED7F" p-id="1303"></path><path d="M820.192351 364.381432c-45.983754 0-83.389055-37.409571-83.389055-83.389055s37.409571-83.389055 83.389055-83.389054 83.389055 37.409571 83.389054 83.389054-37.405301 83.389055-83.389054 83.389055z m0-124.077994c-22.43891 0-40.68894 18.254299-40.68894 40.688939s18.250029 40.68894 40.68894 40.68894 40.68894-18.254299 40.688939-40.68894-18.250029-40.68894-40.688939-40.688939z" fill="#6E6E96" p-id="1304"></path><path d="M788.385035 224.021884s-189.750771-53.042083-258.164896 149.881674c0 0 40.031358-286.086501 202.612046-255.406469 0-0.00427 82.547862 16.862275 55.55285 105.524795z" fill="#A2DBA8" p-id="1305"></path><path d="M530.232949 395.257885a21.350058 21.350058 0 0 1-21.153637-24.313445c1.579904-11.27283 40.471169-276.103214 199.874969-276.103214 9.078044 0 18.44218 0.896702 27.840475 2.673027 2.096576 0.427001 44.173269 9.389755 65.886277 45.872733 14.300269 24.031625 16.362684 53.255584 6.136007 86.856305a21.341518 21.341518 0 0 1-26.170901 14.342968c-0.15372-0.0427-20.316715-5.465615-48.767801-5.465614-61.898087 0-143.971978 24.565376-183.426884 141.602121a21.358598 21.358598 0 0 1-20.218505 14.535119z m178.717062-257.716544c-48.05471 0-88.367888 36.363418-119.906193 108.120961C638.840692 204.785482 695.717245 196.420529 733.878338 196.420529c14.92369 0 27.977115 1.251113 38.084233 2.698648 1.485964-13.198606-0.456891-24.462896-5.828566-33.630611-11.405201-19.479793-35.560656-25.594449-37.584641-26.07696a107.954431 107.954431 0 0 0-19.599353-1.870265z" fill="#6E6E96" p-id="1306"></path></svg>